<svg width="64" height="64" viewBox="0 0 64 64" fill="none" xmlns="http://www.w3.org/2000/svg">
<path d="M35.9407 32.2212C36.0464 32.2212 36.1571 32.2213 36.2628 32.2522H36.4138C37.1479 32.2516 37.8672 32.0405 38.49 31.6426C39.1127 31.2447 39.614 30.6761 39.9368 30.0014C39.9965 29.8653 40.0274 29.7179 40.0274 29.5688C40.0274 29.4196 39.9965 29.2722 39.9368 29.1361C39.8807 28.9992 39.7963 28.8763 39.6895 28.7758C39.5826 28.6754 39.4558 28.5997 39.3178 28.5541C39.2156 28.5191 39.1084 28.5017 39.0007 28.5026C38.8073 28.5011 38.6176 28.5567 38.4543 28.6626C38.291 28.7686 38.1609 28.9205 38.0797 29.1001C37.925 29.4198 37.6862 29.6891 37.3901 29.8774C37.094 30.0658 36.7524 30.1658 36.4037 30.1662H36.3333C35.9289 30.1524 35.5408 30 35.2311 29.7336C35.0431 29.5778 34.8087 29.4924 34.5668 29.4915C34.3107 29.4911 34.0642 29.5905 33.8772 29.7696C33.77 29.8699 33.6853 29.9926 33.6288 30.1296C33.5724 30.2665 33.5455 30.4143 33.5501 30.5628C33.5559 30.7118 33.592 30.858 33.6561 30.9919C33.7202 31.1258 33.811 31.2446 33.9225 31.3405C34.4977 31.8279 35.1988 32.1339 35.9407 32.2212V32.2212Z" fill="#2448DE" style="fill:#2448DE;fill:color(display-p3 0.1412 0.2824 0.8706);fill-opacity:1;"/>
<path d="M59.3902 18.887C57.3625 15.6633 54.7307 12.8829 51.6467 10.7064C48.5628 8.52988 45.0879 7.00045 41.4229 6.2065L41.1159 6.1447C41.0388 6.13961 40.9615 6.13961 40.8844 6.1447L40.1999 2.46211C40.0697 1.74538 39.6899 1.10129 39.131 0.649234C38.5722 0.197174 37.8721 -0.0321949 37.1606 0.0036459C36.4491 0.0394867 35.7744 0.338106 35.2616 0.844149C34.7488 1.35019 34.4327 2.02933 34.3719 2.75568L34.1202 5.60905C26.1734 5.95928 18.5184 9.58007 13.4856 15.9358C13.1251 16.4245 12.8195 16.9532 12.5746 17.5118C11.3064 17.8383 10.192 18.6138 9.42909 19.7008C9.17689 19.6699 8.92312 19.6544 8.66913 19.6544C7.45636 19.6512 6.2693 20.012 5.25489 20.6922C4.24047 21.3724 3.44324 22.342 2.96188 23.4812L2.90651 23.6203C2.63828 24.2586 2.62445 24.9789 2.86799 25.6274C3.11153 26.276 3.59314 26.8015 4.21002 27.0917L5.21659 27.5552L4.29055 30.764C3.43496 30.5425 2.50388 30.3159 1.9855 30.661C1.46712 31.006 1.26077 31.7683 1.01416 32.5203L0.838012 33.3289C0.818024 33.4225 0.802904 33.517 0.792717 33.6122C0.505844 36.1874 2.14655 38.33 4.77873 38.7627L7.29516 39.1953C7.28512 39.3239 7.28512 39.453 7.29516 39.5816C8.04472 44.0937 9.8162 48.3636 12.4678 52.0493C15.1193 55.735 18.5773 58.7342 22.5648 60.8067C22.9373 61.0024 24.7491 61.8368 25.2272 62.0068C26.6099 62.5682 28.0335 63.0177 29.485 63.351C31.4454 63.7798 33.4443 63.9973 35.4489 64C42.6687 63.9966 49.6179 61.1874 54.8908 56.1404C55.4293 55.6253 57.1103 53.7969 57.5834 53.2098C61.3948 48.4215 63.6232 42.519 63.9479 36.3521C64.2726 30.1851 62.6768 24.0718 59.3902 18.8921V18.887ZM36.9588 2.97201C36.9637 2.8846 37.0001 2.80215 37.0608 2.74046C37.1215 2.67877 37.2023 2.64219 37.2877 2.63772C37.3732 2.63326 37.4572 2.66122 37.5237 2.71626C37.5903 2.77129 37.6346 2.84952 37.6483 2.93595L39.1581 10.9707C39.1581 10.9707 36.7424 10.4969 36.4555 8.95171L36.9588 2.97201ZM36.2139 11.5836C36.3886 11.7698 36.5771 11.942 36.7776 12.0986C37.2308 12.4479 37.7425 12.7097 38.2874 12.8712C38.6063 12.9683 38.9331 13.0355 39.2638 13.0721H39.4953L40.7636 17.3882C39.978 17.3846 39.2053 17.1829 38.5139 16.801C37.7093 16.4368 37.0055 15.8741 36.4656 15.1632C36.3397 14.9846 36.2237 14.7989 36.1183 14.6069L35.9774 14.3494L35.8616 14.1125L36.2139 11.5836ZM35.4388 18.6192L35.6351 16.8319C35.7459 16.9865 35.8717 17.1358 36.0025 17.2852C36.1334 17.4345 36.2743 17.5891 36.4203 17.7333C37.4354 18.7648 38.7627 19.4131 40.1848 19.572C40.3559 19.572 40.5321 19.5823 40.7133 19.6029C40.8945 19.6029 41.0807 19.6029 41.2669 19.6029L42.7365 25.0057C42.7421 25.0273 42.7403 25.0502 42.7315 25.0706C42.7226 25.091 42.7073 25.1077 42.6879 25.1179C42.6685 25.1281 42.6463 25.1313 42.6249 25.1268C42.6035 25.1223 42.5843 25.1105 42.5704 25.0933C42.2511 24.6799 41.8787 24.3126 41.4632 24.0014C41.2704 23.8619 41.0704 23.7329 40.8643 23.6151L38.0509 22.0236L35.2426 20.4373L35.4388 18.6192ZM32.0618 25.3611L33.5717 22.6262L39.7268 26.1543C40.0993 26.3664 40.426 26.6535 40.6873 26.9982C40.9486 27.3429 41.139 27.7381 41.2471 28.1601C41.3553 28.5821 41.3789 29.0221 41.3165 29.4536C41.2542 29.8852 41.1072 30.2994 40.8844 30.6713L40.3811 31.5468C39.8137 32.4879 38.9101 33.1656 37.8623 33.4358C36.8145 33.706 35.705 33.5476 34.7695 32.9941L33.924 32.4791C32.7621 31.7808 31.9155 30.6427 31.567 29.3108C31.2186 27.9788 31.3963 26.56 32.0618 25.3611ZM23.2845 22.925L24.6937 20.4373C24.9402 20.0015 25.3061 19.6492 25.7462 19.424C26.1863 19.1988 26.6813 19.1106 27.1699 19.1703C27.4991 19.2078 27.8175 19.3129 28.106 19.4793L33.1388 22.3687L23.2845 22.925ZM34.4876 8.24094C34.3618 9.35344 34.2662 10.1415 34.2612 10.1415L33.8434 12.8764L33.1237 19.2578L29.3994 17.1204C28.8089 16.7773 28.1566 16.56 27.4819 16.4817C26.4838 16.3589 25.4725 16.5373 24.5721 16.9948C23.6717 17.4523 22.9215 18.169 22.4138 19.0569L20.8587 21.8434C20.8587 21.8434 18.1812 18.0268 15.4786 17.6354C17.8325 14.8004 20.7395 12.5003 24.013 10.8824C27.2866 9.26462 30.8544 8.36488 34.4876 8.24094ZM23.7324 58.4632C20.1087 56.572 16.967 53.8403 14.5579 50.486C12.1488 47.1317 10.539 43.2477 9.85688 39.1438L12.8061 39.7052C15.6659 40.249 18.4123 41.2945 20.9241 42.7955C22.1421 43.5217 23.2191 44.1758 23.4103 44.3406L24.3766 45.0978C25.9412 46.3193 27.7121 47.2359 29.6007 47.8018C29.6007 47.8018 26.2891 53.8999 23.7324 58.4632ZM53.1243 54.1883C48.3239 58.7653 42.0099 61.3154 35.4489 61.3269C32.27 61.3244 29.1187 60.722 26.1532 59.55L32.4745 48.3838C34.5732 48.6619 36.0982 48.1983 37.2104 46.8386C37.4003 46.6653 37.5165 46.4229 37.5344 46.1632C37.5522 45.9035 37.4703 45.6468 37.306 45.448C36.6618 44.5518 35.6553 45.4016 35.6553 45.4016C34.6185 46.1227 33.934 46.236 32.4342 45.9167C30.1103 45.4334 27.9223 44.4212 26.0325 42.9552L24.9605 42.1105C23.9574 41.3249 22.8859 40.6353 21.7596 40.0503L21.3519 39.8391C19.5642 38.9545 17.663 38.3337 15.705 37.9952L5.20653 36.1771C4.70324 36.0947 3.19339 35.6621 3.36953 33.9212L3.54569 33.1074C6.00233 33.9398 8.52981 34.5348 11.095 34.8844L11.9707 35.0183C12.474 35.0955 12.9772 35.1625 13.4805 35.2191C14.9998 35.4122 16.5295 35.5068 18.0604 35.5024C18.3784 35.4923 18.6935 35.4369 18.9965 35.3376L19.681 35.1213C20.4274 34.8966 21.0825 34.4303 21.5482 33.7925C21.8988 33.3065 22.1245 32.7382 22.2045 32.1398C22.2845 31.5413 22.2163 30.9319 22.0062 30.3674C21.7751 29.7605 21.3904 29.2274 20.8916 28.8229C20.3928 28.4183 19.7978 28.1568 19.1676 28.0651C17.5219 28.0085 8.46278 26.52 5.21156 25.1191L5.38771 24.5628C5.74306 23.7121 6.39709 23.0286 7.22072 22.6473C8.04435 22.2659 8.97776 22.2142 9.83675 22.5026L10.2343 22.6365C10.348 22.6645 10.4673 22.6546 10.5751 22.6082C10.6828 22.5619 10.7732 22.4816 10.8333 22.379L11.0295 22.003C11.2806 21.5238 11.6292 21.1054 12.0518 20.7758C12.4744 20.4463 12.9611 20.2134 13.4792 20.0928C13.9973 19.9722 14.5346 19.9668 15.0549 20.0768C15.5752 20.1869 16.0663 20.4099 16.4952 20.7308C16.7008 20.8831 16.8913 21.0556 17.0639 21.2459L17.1847 21.3747C17.2331 21.418 17.277 21.4663 17.3156 21.5189L19.7162 24.434C19.9114 24.6695 20.1566 24.8559 20.4332 24.9791C20.7098 25.1024 21.0103 25.159 21.3116 25.1448L29.9832 24.7534C29.2 26.4241 29.0587 28.335 29.5872 30.1074C30.1157 31.8798 31.2756 33.3844 32.8369 34.323L33.6925 34.838C34.429 35.2772 35.2463 35.556 36.0931 35.6569C37.274 35.7955 38.4691 35.5872 39.5385 35.0564C40.608 34.5256 41.5077 33.6942 42.1325 32.6594L48.8111 21.2459L47.9505 34.6371L53.0891 54.2089L53.1243 54.1883ZM6.80697 31.4181L7.70282 28.1475C8.98619 28.4566 10.5917 28.8222 12.2324 29.1776L13.1232 29.3579C16.3342 29.9502 18.8858 30.1768 18.8858 30.1768C19.1386 30.2169 19.3765 30.3248 19.5754 30.4894C19.7743 30.654 19.9271 30.8696 20.0182 31.1142C20.1545 31.4737 20.1545 31.8724 20.0182 32.2319C19.9125 32.5306 19.6458 33.2053 18.3322 33.262C16.4902 33.4062 11.3768 32.6594 6.80697 31.4181ZM55.1978 52.02C55.1978 51.8964 50.4216 34.3642 50.4216 34.3796L51.2017 19.129C51.1443 18.7032 50.9582 18.3064 50.6694 17.9942C50.3806 17.682 50.0036 17.4701 49.5912 17.3882L49.4251 17.3624C49.0394 17.3181 48.6494 17.3888 48.302 17.5661C47.9547 17.7434 47.6648 18.0197 47.4674 18.3616L44.6087 23.2855L40.5824 8.75084L40.8492 8.80234C45.192 9.75007 49.2244 11.8229 52.5603 14.8223C55.8962 17.8216 58.4238 21.6472 59.9011 25.9326C61.3784 30.218 61.756 34.8198 60.9977 39.2974C60.2394 43.7749 58.3706 47.9782 55.5702 51.5049" fill="#2448DE" style="fill:#2448DE;fill:color(display-p3 0.1412 0.2824 0.8706);fill-opacity:1;"/>
</svg>
