<svg width="64" height="64" viewBox="0 0 64 64" fill="none" xmlns="http://www.w3.org/2000/svg">
<path d="M39.7536 9.08749L38.1094 0.32572C38.0946 0.231471 38.0463 0.14616 37.9738 0.0861444C37.9014 0.0261292 37.8098 -0.00436655 37.7168 0.000505234C37.6238 0.00537702 37.5358 0.045272 37.4696 0.112543C37.4035 0.179813 37.364 0.269725 37.3586 0.365036L36.8105 6.88582C37.1229 8.57077 39.7536 9.08749 39.7536 9.08749Z" fill="#FAFBFF" style="fill:#FAFBFF;fill:color(display-p3 0.9804 0.9843 1.0000);fill-opacity:1;"/>
<path d="M36.4714 13.0525C36.5862 13.2618 36.7125 13.4644 36.8496 13.6591C37.436 14.4336 38.2005 15.0472 39.0747 15.4451C39.8287 15.8645 40.6721 16.0863 41.53 16.091L40.1708 11.3844H39.9187C39.5586 11.3445 39.2027 11.2712 38.8555 11.1654C38.262 10.9892 37.7049 10.7037 37.2113 10.3229C36.9929 10.1521 36.7877 9.96431 36.5975 9.76123L36.2193 12.5189L36.3454 12.7773L36.4714 13.0525Z" fill="#FAFBFF" style="fill:#FAFBFF;fill:color(display-p3 0.9804 0.9843 1.0000);fill-opacity:1;"/>
<path d="M41.6362 22.8421C41.8608 22.9706 42.0785 23.1112 42.2884 23.2634C42.7405 23.6013 43.1445 24.002 43.4887 24.4541C43.501 24.4794 43.5227 24.4987 43.5489 24.5076C43.5751 24.5166 43.6037 24.5145 43.6284 24.5018C43.6532 24.4892 43.6719 24.467 43.6807 24.4401C43.6894 24.4132 43.6874 24.3839 43.675 24.3586L42.0747 18.4669C41.8719 18.4669 41.6691 18.4669 41.4718 18.4669C41.2745 18.4669 41.0827 18.4669 40.8964 18.4332C39.3512 18.2675 37.9063 17.5707 36.7969 16.4562C36.6379 16.2989 36.4845 16.136 36.342 15.9675C36.1995 15.799 36.0625 15.6418 35.9419 15.4733L35.7281 17.4222L35.5144 19.3711L38.5726 21.101L41.6362 22.8421Z" fill="#FAFBFF" style="fill:#FAFBFF;fill:color(display-p3 0.9804 0.9843 1.0000);fill-opacity:1;"/>
<path d="M50.329 20.2918L43.0562 32.738C42.3758 33.8665 41.396 34.7731 40.2314 35.352C39.0668 35.9308 37.7654 36.158 36.4795 36.0069C35.5573 35.8968 34.6673 35.5928 33.8652 35.1138L32.9335 34.5522C31.2333 33.5287 29.9703 31.888 29.3947 29.9552C28.8192 28.0224 28.9731 25.9386 29.826 24.1167L20.3829 24.5435C20.0548 24.5591 19.7275 24.4973 19.4263 24.3629C19.1252 24.2285 18.8581 24.0252 18.6456 23.7685L16.0313 20.5895C15.9893 20.5322 15.9415 20.4795 15.8888 20.4322L15.7573 20.2918C15.5693 20.0843 15.3619 19.8962 15.138 19.7302C14.6709 19.3802 14.1361 19.137 13.5695 19.017C13.0029 18.8969 12.4178 18.9029 11.8536 19.0344C11.2895 19.1659 10.7594 19.4199 10.2992 19.7792C9.83903 20.1386 9.45942 20.5949 9.18603 21.1175L8.97228 21.5275C8.90572 21.6554 8.79704 21.7549 8.66556 21.8084C8.53409 21.8619 8.38836 21.8658 8.25432 21.8195L7.82136 21.6735C6.88594 21.359 5.86949 21.4153 4.97258 21.8312C4.07568 22.2471 3.36347 22.9924 2.9765 23.9201L2.78467 24.5267C6.32515 26.0375 16.1902 27.6776 17.9824 27.7393C18.6686 27.8393 19.3165 28.1245 19.8597 28.5657C20.4029 29.0068 20.8218 29.5881 21.0735 30.2499C21.3023 30.8655 21.3766 31.5301 21.2894 32.1827C21.2023 32.8353 20.9565 33.455 20.5747 33.9849C20.0676 34.6805 19.3542 35.1889 18.5414 35.434L17.7961 35.6699C17.4661 35.7781 17.123 35.8386 16.7767 35.8496C15.1095 35.8544 13.4438 35.7513 11.7893 35.5407C11.2796 35.4789 10.7316 35.4059 10.1451 35.3216L9.19151 35.1756C6.39814 34.7944 3.6458 34.1456 0.970594 33.2379L0.778771 34.1253C0.565028 36.0462 2.25854 36.4955 2.77919 36.5854L14.2117 38.568C16.3439 38.937 18.4143 39.614 20.361 40.5787L20.8049 40.809C22.0315 41.4469 23.1982 42.199 24.2906 43.0556L25.458 43.9767C27.5096 45.5792 29.8865 46.6886 32.4128 47.223C34.057 47.5769 34.7914 47.4533 35.9204 46.6614C35.9204 46.6614 37.0166 45.7347 37.7181 46.7119C37.8969 46.9288 37.9862 47.2086 37.9667 47.4919C37.9473 47.7751 37.8207 48.0394 37.6139 48.2284C36.4027 49.6887 34.7421 50.1942 32.4567 49.9134L25.6169 62.0619C28.8462 63.3399 32.2778 63.9968 35.7396 63.9996C42.8786 63.9828 49.7478 61.2023 54.971 56.2151L49.3753 34.8723L50.329 20.2918Z" fill="#FAFBFF" style="fill:#FAFBFF;fill:color(display-p3 0.9804 0.9843 1.0000);fill-opacity:1;"/>
<path d="M17.1016 33.4236C18.5321 33.3337 18.8225 32.598 18.9376 32.3003C19.086 31.9083 19.086 31.4735 18.9376 31.0815C18.8424 30.8095 18.6777 30.5686 18.4609 30.3839C18.244 30.1992 17.9828 30.0774 17.7045 30.0312C17.7045 30.0312 14.9642 29.7841 11.4402 29.1213L10.4701 28.9248C8.69985 28.5597 6.95153 28.1609 5.53753 27.8015L4.55103 31.3848C9.52742 32.7384 15.0957 33.5528 17.1016 33.4236Z" fill="#FAFBFF" style="fill:#FAFBFF;fill:color(display-p3 0.9804 0.9843 1.0000);fill-opacity:1;"/>
<path d="M32.0543 24.7801C31.3261 26.0885 31.1306 27.6384 31.5103 29.0936C31.8899 30.5487 32.8139 31.7919 34.0821 32.5534L35.0028 33.115C36.0216 33.7186 37.2297 33.8913 38.3708 33.5966C39.5118 33.3019 40.4958 32.563 41.1137 31.5368L41.6618 30.582C41.9044 30.1764 42.0645 29.7247 42.1324 29.2541C42.2003 28.7835 42.1745 28.3037 42.0568 27.8436C41.939 27.3834 41.7316 26.9524 41.4471 26.5765C41.1626 26.2006 40.8069 25.8876 40.4012 25.6563V25.6563L33.6985 21.809L32.0543 24.7801ZM34.7946 29.2733C35.058 29.2743 35.3132 29.3674 35.518 29.5373C35.8553 29.8278 36.2779 29.994 36.7183 30.0091H36.795C37.1747 30.0087 37.5467 29.8996 37.8691 29.6942C38.1916 29.4888 38.4516 29.1952 38.62 28.8465C38.7105 28.6518 38.8536 28.488 39.0324 28.3744C39.2112 28.2609 39.4181 28.2025 39.6285 28.2062C39.7458 28.2047 39.8626 28.2237 39.9737 28.2623C40.1241 28.3121 40.2622 28.3946 40.3785 28.5041C40.4949 28.6137 40.5868 28.7477 40.6479 28.897C40.7129 29.0454 40.7465 29.2062 40.7465 29.3688C40.7465 29.5314 40.7129 29.6922 40.6479 29.8406C40.2963 30.5764 39.7505 31.1964 39.0723 31.6303C38.3942 32.0641 37.6109 32.2944 36.8114 32.295H36.647C36.5319 32.295 36.4113 32.295 36.2963 32.2613C35.4903 32.165 34.7288 31.8314 34.104 31.3009C33.9825 31.1962 33.8837 31.0667 33.8139 30.9207C33.744 30.7747 33.7047 30.6153 33.6985 30.4528C33.6934 30.2908 33.7227 30.1296 33.7842 29.9803C33.8457 29.831 33.9379 29.6971 34.0547 29.5878C34.2541 29.3965 34.516 29.2883 34.7891 29.2845L34.7946 29.2733Z" fill="#FAFBFF" style="fill:#FAFBFF;fill:color(display-p3 0.9804 0.9843 1.0000);fill-opacity:1;"/>
<path d="M27.7438 18.3657C27.4296 18.1842 27.0829 18.0696 26.7244 18.0287C26.1929 17.9631 25.6543 18.0584 25.1751 18.303C24.6959 18.5475 24.2971 18.9305 24.0279 19.4048L22.4934 22.1231L33.2354 21.5166L27.7438 18.3657Z" fill="#FAFBFF" style="fill:#FAFBFF;fill:color(display-p3 0.9804 0.9843 1.0000);fill-opacity:1;"/>
<g opacity="0.64">
<path opacity="0.64" d="M48.8427 17.148C49.0577 16.7751 49.3734 16.4739 49.7516 16.2805C50.1299 16.0872 50.5546 16.0101 50.9747 16.0584L51.1555 16.0865C51.6046 16.1759 52.0151 16.4069 52.3296 16.7474C52.6441 17.0878 52.8468 17.5205 52.9093 17.9849L52.0598 34.6154C52.0598 34.6154 57.2609 53.7116 57.2609 53.852L57.65 53.2903C60.7035 49.4457 62.7423 44.8618 63.5713 39.978C64.4002 35.0942 63.9914 30.074 62.3841 25.3985C60.7768 20.7231 58.0248 16.5489 54.3917 13.276C50.7587 10.0032 46.3664 7.74121 41.6357 6.70692L41.3452 6.65076L45.7297 22.5006L48.8427 17.148Z" fill="#FAFBFF" style="fill:#FAFBFF;fill:color(display-p3 0.9804 0.9843 1.0000);fill-opacity:1;"/>
<path opacity="0.64" d="M19.8544 20.9775L21.5424 17.939C22.0953 16.9707 22.9122 16.1891 23.8927 15.6902C24.8732 15.1913 25.9745 14.9968 27.0614 15.1307C27.7958 15.2144 28.506 15.4494 29.1495 15.8216L33.2052 18.1524L33.9944 11.1655L34.4438 8.16063C34.4438 8.16063 34.5534 7.3013 34.6904 6.08813C30.7332 6.22686 26.848 7.21188 23.2841 8.97998C19.7202 10.7481 16.5564 13.2602 13.9956 16.3551C16.9387 16.782 19.8544 20.9775 19.8544 20.9775Z" fill="#FAFBFF" style="fill:#FAFBFF;fill:color(display-p3 0.9804 0.9843 1.0000);fill-opacity:1;"/>
<path opacity="0.64" d="M23.684 46.314L22.6372 45.4884C22.429 45.3255 21.2561 44.6122 19.9298 43.8034C17.1945 42.1666 14.2038 41.0265 11.0896 40.4335L7.87247 39.8101C8.61844 44.2813 10.3729 48.5122 12.9962 52.1659C15.6195 55.8196 19.039 58.795 22.9825 60.8552C25.7667 55.8789 29.3729 49.2402 29.3729 49.2402C27.3178 48.63 25.3895 47.6381 23.684 46.314V46.314Z" fill="#FAFBFF" style="fill:#FAFBFF;fill:color(display-p3 0.9804 0.9843 1.0000);fill-opacity:1;"/>
</g>
</svg>
