<svg width="328" height="113" viewBox="0 0 328 113" fill="none" xmlns="http://www.w3.org/2000/svg">
<g clip-path="url(#clip0_1_2388)">
<path d="M69.3415 16.6504L66.4736 1.36958C66.4477 1.20521 66.3635 1.05642 66.2371 0.951752C66.1107 0.847084 65.9511 0.793898 65.7887 0.802395C65.6265 0.810891 65.473 0.880469 65.3576 0.997791C65.2423 1.11511 65.1734 1.27192 65.1639 1.43815L64.2079 12.8106C64.7529 15.7492 69.3415 16.6504 69.3415 16.6504Z" fill="white"/>
<path d="M63.6165 23.5655C63.8167 23.9306 64.0369 24.2838 64.2761 24.6235C65.299 25.9741 66.6324 27.0443 68.1573 27.7384C69.4725 28.4697 70.9437 28.8566 72.4401 28.8648L70.0693 20.6563H69.6296C69.0013 20.5868 68.3805 20.4589 67.775 20.2743C66.7398 19.967 65.768 19.4692 64.9071 18.8049C64.5261 18.5071 64.1682 18.1796 63.8363 17.8254L63.1767 22.635L63.3966 23.0856L63.6165 23.5655Z" fill="white"/>
<path d="M72.6255 40.6386C73.0171 40.8628 73.3968 41.1079 73.7631 41.3734C74.5516 41.9626 75.2562 42.6616 75.8566 43.4499C75.8783 43.4941 75.9161 43.5277 75.9617 43.5432C76.0074 43.5589 76.0573 43.5553 76.1004 43.5332C76.1435 43.5111 76.1763 43.4724 76.1916 43.4256C76.2067 43.3787 76.2032 43.3276 76.1817 43.2834L73.3903 33.0081C73.0365 33.0081 72.6829 33.0081 72.3387 33.0081C71.9945 33.0081 71.66 33.0081 71.3349 32.9493C68.6397 32.6604 66.1193 31.4451 64.1842 29.5013C63.907 29.2271 63.6394 28.943 63.3908 28.6491C63.1423 28.3553 62.9033 28.081 62.693 27.7871L62.3201 31.1862L61.9473 34.5851L67.2816 37.6021L72.6255 40.6386Z" fill="white"/>
<path d="M87.788 36.1912L75.1022 57.8977C73.9154 59.8658 72.2065 61.447 70.175 62.4565C68.1436 63.4661 65.8736 63.8622 63.6305 63.5987C62.0221 63.4067 60.4697 62.8766 59.0705 62.0412L57.4454 61.0616C54.4797 59.2766 52.2767 56.4152 51.2728 53.0444C50.2689 49.6736 50.5373 46.0394 52.025 42.8618L35.5536 43.6063C34.9812 43.6333 34.4104 43.5255 33.885 43.2912C33.3597 43.0568 32.8938 42.7022 32.5232 42.2545L27.9631 36.7103C27.8898 36.6103 27.8066 36.5184 27.7146 36.436L27.4852 36.1912C27.1572 35.8292 26.7954 35.5011 26.405 35.2117C25.5903 34.6013 24.6574 34.1771 23.6691 33.9678C22.6807 33.7585 21.6601 33.7688 20.6761 33.9982C19.692 34.2275 18.7675 34.6704 17.9648 35.2971C17.162 35.9239 16.4999 36.7198 16.023 37.6311L15.6502 38.3462C15.5342 38.5692 15.3445 38.7429 15.1152 38.8361C14.8859 38.9294 14.6317 38.9363 14.3979 38.8555L13.6426 38.6008C12.011 38.0524 10.2381 38.1506 8.6736 38.8759C7.10914 39.6013 5.86685 40.9011 5.19186 42.519L4.85727 43.5768C11.0328 46.2118 28.2404 49.0721 31.3665 49.1799C32.5633 49.3542 33.6935 49.8515 34.641 50.6209C35.5885 51.3904 36.3191 52.4042 36.7581 53.5584C37.1573 54.6319 37.2868 55.791 37.1348 56.9292C36.9828 58.0673 36.5542 59.1481 35.8882 60.0723C35.0037 61.2854 33.7593 62.1721 32.3416 62.5995L31.0414 63.0109C30.4658 63.1997 29.8674 63.3052 29.2633 63.3244C26.3553 63.3328 23.4497 63.1529 20.5639 62.7856C19.6749 62.6779 18.7189 62.5505 17.696 62.4037L16.0326 62.1489C11.1602 61.484 6.35932 60.3526 1.693 58.7695L1.3584 60.3172C0.985578 63.6672 3.93954 64.4509 4.84771 64.6075L24.7893 68.0653C28.5085 68.7089 32.1197 69.8896 35.5153 71.5721L36.2897 71.9737C38.4292 73.0863 40.4643 74.3979 42.3697 75.8918L44.4059 77.4983C47.9846 80.2931 52.1305 82.228 56.5372 83.16C59.4052 83.7771 60.6862 83.5616 62.6554 82.1805C62.6554 82.1805 64.5674 80.5643 65.791 82.2686C66.103 82.6468 66.2586 83.1348 66.2247 83.6288C66.1908 84.1228 65.97 84.5837 65.6094 84.9134C63.4967 87.4602 60.6001 88.3418 56.6137 87.8521L44.6832 109.04C50.316 111.268 56.3017 112.414 62.34 112.418C74.7924 112.389 86.7742 107.541 95.8852 98.8422L86.1246 61.62L87.788 36.1912Z" fill="white"/>
<path d="M29.8301 59.0935C32.3251 58.9367 32.8318 57.6536 33.0325 57.1344C33.2914 56.4507 33.2914 55.6926 33.0325 55.0088C32.8664 54.5345 32.5793 54.1143 32.201 53.7922C31.8227 53.4701 31.3672 53.2577 30.8816 53.177C30.8816 53.177 26.1017 52.746 19.9548 51.5902L18.2627 51.2474C15.1749 50.6107 12.1254 49.9153 9.65898 49.2883L7.93823 55.5378C16.6185 57.8985 26.3311 59.3188 29.8301 59.0935Z" fill="white"/>
<path d="M55.9119 44.0186C54.6418 46.3006 54.3007 49.0036 54.9629 51.5415C55.6251 54.0793 57.237 56.2474 59.449 57.5754L61.055 58.555C62.8319 59.6075 64.9393 59.9089 66.9296 59.395C68.9198 58.881 70.6362 57.5923 71.7141 55.8024L72.67 54.1373C73.0933 53.43 73.3725 52.6422 73.4909 51.8215C73.6093 51.0007 73.5644 50.164 73.359 49.3614C73.1537 48.5589 72.7919 47.8073 72.2957 47.1517C71.7994 46.4961 71.1788 45.9502 70.4713 45.5467L58.7797 38.8369L55.9119 44.0186ZM60.6916 51.8549C61.1512 51.8567 61.5964 52.0191 61.9536 52.3154C62.5419 52.8221 63.2791 53.1118 64.0471 53.1381H64.181C64.8432 53.1374 65.4921 52.9472 66.0546 52.5889C66.617 52.2307 67.0706 51.7187 67.3644 51.1105C67.5221 50.771 67.7718 50.4852 68.0837 50.2872C68.3956 50.0893 68.7565 49.9873 69.1234 49.9938C69.3281 49.9913 69.5318 50.0244 69.7256 50.0918C69.9879 50.1786 70.2288 50.3224 70.4318 50.5134C70.6346 50.7044 70.7949 50.9383 70.9014 51.1987C71.0149 51.4574 71.0736 51.7378 71.0736 52.0214C71.0736 52.3051 71.0149 52.5855 70.9014 52.8443C70.2882 54.1276 69.3362 55.2089 68.1533 55.9656C66.9704 56.7222 65.6041 57.1238 64.2097 57.1248H63.9229C63.7222 57.1248 63.5119 57.1248 63.311 57.0661C61.9052 56.8982 60.577 56.3164 59.4872 55.391C59.2753 55.2085 59.1029 54.9827 58.9811 54.7281C58.8593 54.4733 58.7907 54.1953 58.7797 53.912C58.771 53.6295 58.822 53.3484 58.9293 53.088C59.0365 52.8276 59.1975 52.5941 59.4011 52.4035C59.7489 52.0698 60.2057 51.8811 60.6821 51.8746L60.6916 51.8549Z" fill="white"/>
<path d="M48.3931 32.8318C47.845 32.5153 47.2403 32.3154 46.615 32.2442C45.6879 32.1297 44.7484 32.296 43.9126 32.7225C43.0767 33.149 42.3811 33.817 41.9116 34.6439L39.2348 39.385L57.9719 38.327L48.3931 32.8318Z" fill="white"/>
<g opacity="0.64">
<path opacity="0.64" d="M85.1955 30.7077C85.5706 30.0573 86.1212 29.5319 86.781 29.1948C87.4407 28.8576 88.1816 28.7231 88.9142 28.8074L89.2297 28.8563C90.013 29.0122 90.7291 29.4152 91.2776 30.0089C91.8262 30.6027 92.1797 31.3573 92.2888 32.1672L90.807 61.1713C90.807 61.1713 99.8794 94.4756 99.8794 94.7205L100.558 93.741C105.884 87.0357 109.44 79.0413 110.887 70.5238C112.333 62.0063 111.619 53.251 108.816 45.0969C106.012 36.9427 101.212 29.6628 94.8746 23.9549C88.5376 18.2469 80.8762 14.302 72.6244 12.4981L72.1178 12.4001L79.7656 40.0427L85.1955 30.7077Z" fill="white"/>
<path opacity="0.64" d="M34.6318 37.3868L37.5761 32.0875C38.5405 30.3988 39.9654 29.0356 41.6756 28.1655C43.3859 27.2955 45.307 26.9563 47.2028 27.1898C48.4837 27.3357 49.7227 27.7456 50.845 28.3946L57.9193 32.4597L59.2959 20.2742L60.0798 15.0337C60.0798 15.0337 60.271 13.535 60.51 11.4192C53.6075 11.6611 46.8305 13.3791 40.6141 16.4627C34.3977 19.5463 28.879 23.9275 24.4124 29.3251C29.546 30.0697 34.6318 37.3868 34.6318 37.3868Z" fill="white"/>
<path opacity="0.64" d="M41.3117 81.5746L39.4858 80.1346C39.1225 79.8506 37.0768 78.6065 34.7633 77.196C29.9922 74.3413 24.7755 72.353 19.3434 71.3187L13.7319 70.2314C15.0331 78.0294 18.0934 85.4084 22.6691 91.7804C27.2448 98.1525 33.2095 103.342 40.0881 106.935C44.9444 98.2561 51.2347 86.678 51.2347 86.678C47.65 85.6137 44.2865 83.8839 41.3117 81.5746Z" fill="white"/>
</g>
<path d="M145.048 35.9416L156.09 9.79528L147.404 9.77532L142.014 23.2876L136.662 9.75537H127.997L138.919 35.9416H145.048Z" fill="white"/>
<path d="M175.129 28.8974L167.582 28.8775V26.2828L174.729 26.3028V19.2972L167.601 19.2772V16.8222H175.149L175.169 9.83656L159.635 9.79663L159.595 35.943H175.129V28.8974Z" fill="white"/>
<path d="M189.328 28.457L194.08 35.9616H204.063L196.076 25.563C197.355 25.1177 198.483 24.3223 199.331 23.2676C200.385 21.8156 200.92 20.0508 200.849 18.258C200.856 17.1636 200.674 16.0763 200.309 15.0445C199.934 14.055 199.371 13.1469 198.652 12.37C197.863 11.5552 196.901 10.9277 195.838 10.5338C194.606 10.0723 193.299 9.84878 191.984 9.87513H181.282V35.9815H189.269L189.328 28.457ZM189.328 16.3618H189.707C190.553 16.293 191.397 16.5109 192.103 16.9805C192.324 17.1842 192.5 17.4312 192.619 17.7059C192.74 17.9808 192.801 18.2774 192.801 18.5772C192.801 18.8771 192.74 19.1738 192.619 19.4486C192.5 19.7234 192.324 19.9703 192.103 20.174C191.388 20.6216 190.549 20.8312 189.707 20.7728H189.308L189.328 16.3618Z" fill="white"/>
<path d="M220.294 35.962L220.313 23.6672L230.037 9.9154L220.453 9.89545L216.361 15.943L212.267 9.87549H202.683L212.347 23.6672L212.327 35.962H220.294Z" fill="white"/>
<path d="M185.774 62.1476C187.198 58.6889 187.198 54.8084 185.774 51.3497C185.068 49.6921 184.037 48.1931 182.74 46.9417C181.444 45.6903 179.909 44.7119 178.227 44.0647C176.395 43.3504 174.444 42.9915 172.477 43.0068C170.513 42.9913 168.563 43.3433 166.727 44.0447C164.18 45.0333 161.995 46.7735 160.462 49.0338C158.927 51.2942 158.119 53.9676 158.142 56.6987C158.131 58.554 158.492 60.3928 159.2 62.1076C159.894 63.7357 160.897 65.2135 162.155 66.4586C163.452 67.7328 164.994 68.7309 166.688 69.3926C168.528 70.101 170.485 70.4598 172.458 70.4505C174.416 70.4645 176.359 70.1125 178.187 69.4126C179.887 68.749 181.441 67.759 182.76 66.4986C184.038 65.2585 185.063 63.7804 185.774 62.1476ZM178.108 59.0938C177.8 59.8021 177.352 60.4405 176.79 60.97C176.212 61.5152 175.535 61.9424 174.794 62.2273C174.039 62.5052 173.242 62.6537 172.437 62.6665C171.636 62.6665 170.843 62.5106 170.102 62.2074C169.357 61.9388 168.676 61.5172 168.104 60.97C167.532 60.4036 167.082 59.7238 166.788 58.9741C166.461 58.2319 166.299 57.4291 166.308 56.6188C166.297 55.8085 166.461 55.0053 166.788 54.2637C167.092 53.5191 167.539 52.8411 168.104 52.2678C168.679 51.7242 169.359 51.3032 170.102 51.0303C170.844 50.7335 171.638 50.5843 172.437 50.5913C173.23 50.5762 174.017 50.7184 174.754 51.0096C175.491 51.3007 176.162 51.7353 176.73 52.2878C177.602 53.1204 178.196 54.2011 178.432 55.3831C178.668 56.5651 178.534 57.791 178.048 58.8942L178.108 59.0938Z" fill="white"/>
<path d="M217.415 62.1875C218.132 60.4815 218.498 58.649 218.493 56.7985C218.508 54.9473 218.141 53.1128 217.415 51.4096C216.729 49.7666 215.717 48.2796 214.44 47.0386C213.133 45.7725 211.584 44.7816 209.888 44.1246C208.056 43.4104 206.104 43.0513 204.137 43.0668C202.178 43.0431 200.234 43.3955 198.408 44.1046C196.716 44.7521 195.174 45.7368 193.875 46.9987C192.61 48.2503 191.6 49.7346 190.9 51.3697C189.815 53.8981 189.514 56.6942 190.037 59.3952C190.561 62.0964 191.884 64.5781 193.835 66.5186C195.138 67.78 196.679 68.7704 198.368 69.4326C200.205 70.1503 202.164 70.5094 204.137 70.4905C206.097 70.5122 208.041 70.1599 209.868 69.4526C211.556 68.818 213.097 67.8467 214.398 66.5977C215.7 65.3487 216.733 63.8482 217.435 62.1875H217.415ZM209.728 59.1538C209.421 59.8621 208.972 60.5003 208.41 61.0299C207.83 61.5708 207.152 61.9974 206.414 62.2873C205.667 62.5681 204.876 62.7102 204.078 62.7065C203.27 62.7327 202.466 62.5829 201.722 62.2673C200.981 61.9906 200.302 61.5701 199.725 61.0299C199.169 60.4532 198.729 59.7758 198.427 59.034C198.106 58.2869 197.94 57.4822 197.94 56.6688C197.94 55.8556 198.106 55.0508 198.427 54.3037C199.061 52.8745 200.229 51.7499 201.682 51.1702C202.427 50.8808 203.219 50.7319 204.018 50.731C204.826 50.7289 205.626 50.8848 206.374 51.19C207.108 51.4789 207.785 51.8981 208.37 52.4275C208.947 52.9957 209.402 53.6746 209.708 54.4234C210.03 55.1706 210.195 55.9753 210.195 56.7886C210.195 57.6019 210.03 58.4066 209.708 59.1538H209.728Z" fill="white"/>
<path d="M241.858 65.9014C243.024 64.6946 243.952 63.2795 244.594 61.7299C245.264 60.1516 245.609 58.4546 245.609 56.7402C245.609 55.0257 245.264 53.3287 244.594 51.7504C243.951 50.2129 243.023 48.811 241.858 47.6189C240.72 46.4233 239.365 45.4547 237.865 44.7648C236.293 44.0413 234.584 43.6668 232.854 43.667H222.631V69.7535H232.854C234.594 69.7569 236.317 69.3894 237.905 68.6757C239.377 67.9934 240.716 67.0539 241.858 65.9014ZM236.907 59.255C236.642 59.9671 236.227 60.6139 235.689 61.1512C235.152 61.6885 234.504 62.1037 233.793 62.3686C232.95 62.6861 232.057 62.8418 231.157 62.8277H230.498V50.8522H231.136C232.036 50.8414 232.929 50.997 233.772 51.3113C234.522 51.5696 235.203 51.9924 235.768 52.5487C236.304 53.1222 236.712 53.8024 236.967 54.5446C237.269 55.3203 237.418 56.1472 237.405 56.9797C237.373 57.7742 237.204 58.5573 236.907 59.2949V59.255Z" fill="white"/>
<path d="M142.007 89.8916L136.656 76.3793L127.971 76.3594L138.912 102.446H145.042L156.083 76.3993L147.397 76.3793L142.007 89.8916Z" fill="white"/>
<path d="M159.466 102.484L174.999 102.504L175.02 95.4985H167.452L167.472 92.8839L174.6 92.9037L174.62 85.8981L167.472 85.8782V83.4233H175.039V76.4375L159.506 76.3977L159.466 102.484Z" fill="white"/>
<path d="M198.313 89.8892L187.79 76.4368H180.224L180.184 102.503L188.17 102.524L188.19 89.0908L198.712 102.543H206.24L206.279 76.4767L198.332 76.4567L198.313 89.8892Z" fill="white"/>
<path d="M210.505 83.4836H215.716L215.696 102.565L223.663 102.584L223.702 83.5036L228.933 83.5236V76.518L210.505 76.478V83.4836Z" fill="white"/>
<path d="M248.566 90.6483C248.566 91.3469 248.566 92.0655 248.566 92.7839C248.538 93.3841 248.395 93.9734 248.146 94.5204C247.928 94.9915 247.582 95.3924 247.148 95.678C246.533 95.9964 245.843 96.1413 245.152 96.0971C244.458 96.1448 243.765 95.9924 243.155 95.6581C242.718 95.3902 242.376 94.9924 242.177 94.5204C241.925 93.9673 241.783 93.3709 241.758 92.764C241.758 92.0455 241.758 91.3269 241.758 90.6483V76.5374H233.771V91.5266C233.638 93.1251 233.822 94.7342 234.311 96.2617C234.801 97.7892 235.588 99.2055 236.626 100.428C237.8 101.458 239.167 102.245 240.648 102.741C242.129 103.238 243.693 103.435 245.251 103.323C246.797 103.438 248.351 103.246 249.821 102.756C251.292 102.266 252.65 101.489 253.817 100.469C254.855 99.2446 255.641 97.8292 256.132 96.3017C256.621 94.7742 256.805 93.165 256.672 91.5664V76.5772H248.686L248.566 90.6483Z" fill="white"/>
<path d="M280.132 89.9899C281.197 88.535 281.739 86.7623 281.669 84.9602C281.678 83.8707 281.489 82.7885 281.11 81.7668C280.754 80.7674 280.189 79.8556 279.452 79.0923C278.667 78.282 277.713 77.655 276.657 77.256C275.42 76.7895 274.106 76.5592 272.783 76.5774H262.082V102.664H270.068V95.1992L274.881 102.684H284.864L276.877 92.2652C278.157 91.8333 279.287 91.0437 280.132 89.9899ZM272.824 86.9162C272.114 87.3598 271.283 87.5692 270.447 87.515H270.049V83.0841H270.447C271.289 83.0256 272.128 83.2352 272.844 83.6829C273.072 83.8829 273.252 84.1325 273.37 84.4127C273.487 84.6928 273.54 84.9962 273.523 85.2996C273.549 85.6057 273.499 85.9138 273.377 86.196C273.255 86.4781 273.065 86.7256 272.824 86.9162Z" fill="white"/>
<path d="M288.053 102.684L303.586 102.705L303.606 95.7186L296.039 95.6987V93.1039H303.187L303.206 86.0983H296.059V83.6235L303.626 83.6434V76.6378L288.093 76.5979L288.053 102.684Z" fill="white"/>
<path d="M321.524 86.2395L319.926 85.7405C319.482 85.615 319.048 85.4548 318.629 85.2616C318.334 85.1286 318.07 84.9387 317.85 84.7027C317.786 84.6335 317.736 84.5515 317.706 84.4622C317.674 84.3728 317.663 84.2779 317.67 84.1838C317.664 84.0101 317.703 83.8376 317.783 83.6836C317.863 83.5296 317.983 83.3993 318.13 83.3055C318.632 83.0432 319.19 82.9062 319.757 82.9062C320.324 82.9062 320.882 83.0432 321.384 83.3055C322.052 83.5895 322.678 83.9657 323.241 84.4233L323.999 85.0619L327.354 78.4954L326.655 78.1162C325.391 77.4452 324.05 76.9292 322.662 76.5794C321.366 76.1995 320.019 76.0178 318.668 76.0405C317.385 76.0297 316.108 76.239 314.895 76.6591C313.798 77.0593 312.793 77.6771 311.94 78.4755C311.123 79.2711 310.484 80.23 310.063 81.2897C309.611 82.4329 309.388 83.6533 309.404 84.8823C309.373 86.033 309.591 87.1769 310.043 88.2354C310.442 89.0879 311.021 89.8438 311.74 90.4509C312.437 91.0413 313.226 91.5132 314.076 91.848C314.875 92.1674 315.694 92.4668 316.532 92.7262C317.371 92.9857 317.77 93.1653 318.249 93.3649C318.604 93.492 318.939 93.6666 319.248 93.8838C319.419 93.9993 319.556 94.1576 319.647 94.343C319.732 94.5305 319.774 94.7356 319.767 94.9417C319.762 95.1402 319.715 95.3355 319.629 95.5144C319.543 95.6933 319.42 95.8519 319.267 95.9795C318.76 96.3499 318.137 96.5268 317.511 96.4786C316.666 96.4337 315.836 96.2448 315.054 95.9197C314.104 95.4727 313.227 94.8802 312.459 94.1633L311.68 93.4847L308.126 100.151L308.725 100.551C311.361 102.444 314.525 103.463 317.77 103.464C319.212 103.486 320.648 103.277 322.023 102.846C323.227 102.45 324.34 101.82 325.298 100.989C326.17 100.184 326.851 99.1966 327.294 98.0952C327.769 96.9156 328.006 95.6542 327.993 94.3828C328.071 92.5609 327.499 90.7705 326.376 89.3332C325.074 87.8745 323.395 86.8038 321.524 86.2395Z" fill="white"/>
<path d="M131.748 66.5596C132.98 67.7859 134.447 68.7501 136.061 69.3937C137.811 70.074 139.674 70.4127 141.552 70.3917C142.947 70.3985 144.338 70.2172 145.685 69.8528C146.983 69.5102 148.222 68.9718 149.358 68.2561C150.496 67.5571 151.497 66.6577 152.313 65.6015C153.18 64.5199 153.855 63.2981 154.31 61.9889C154.683 60.9806 154.918 59.9265 155.009 58.8554C155.134 57.6553 155.195 56.4494 155.188 55.2428V54.4245H140.972V60.1128H146.404C146.167 61.0885 145.585 61.9461 144.766 62.5278C144.37 62.7897 143.931 62.979 143.468 63.0867C142.138 63.3905 140.746 63.2862 139.475 62.7873C138.814 62.4964 138.227 62.0597 137.758 61.51C137.268 60.9238 136.901 60.245 136.68 59.514C136.432 58.6512 136.311 57.757 136.321 56.8595C136.306 55.8902 136.455 54.9254 136.76 54.0053C137.007 53.2326 137.401 52.5144 137.918 51.8897C138.38 51.328 138.968 50.8833 139.635 50.5924C140.336 50.2721 141.101 50.1151 141.871 50.1333C142.797 50.1112 143.709 50.3685 144.486 50.8718C144.968 51.2045 145.375 51.6325 145.685 52.1292L153.112 48.8759C152.1 47.1884 150.687 45.7762 148.999 44.7643C146.818 43.566 144.36 42.9603 141.871 43.0079C139.932 42.9511 138 43.2696 136.181 43.946C134.545 44.5623 133.055 45.5142 131.808 46.7403C130.567 47.9711 129.607 49.4552 128.993 51.0913C127.665 54.6714 127.665 58.6085 128.993 62.1886C129.608 63.8162 130.545 65.303 131.748 66.5596Z" fill="white"/>
</g>
<defs>
<clipPath id="clip0_1_2388">
<rect width="328" height="111.618" fill="white" transform="translate(0 0.801514)"/>
</clipPath>
</defs>
</svg>
